<svg viewBox="0 0 800 500" xmlns="http://www.w3.org/2000/svg">
<defs>
<clipPath id="win"><rect x="8" y="8" width="784" height="484" rx="12"/></clipPath>
<style>
text{font-family:system-ui,-apple-system,Arial,sans-serif}
.scr{opacity:0;animation:show 24s infinite;animation-fill-mode:backwards}
.d0{animation-delay:0s}.d1{animation-delay:4s}.d2{animation-delay:8s}
.d3{animation-delay:12s}.d4{animation-delay:16s}.d5{animation-delay:20s}
@keyframes show{0%,100%{opacity:0}2%,14%{opacity:1}16.67%{opacity:0}}
</style>
</defs>

<rect width="800" height="500" fill="#DDE3F0"/>
<rect x="10" y="12" width="784" height="484" rx="12" fill="#0000001C"/>
<rect x="8" y="8" width="784" height="484" rx="12" fill="#F9FAFB"/>

<g clip-path="url(#win)">

<rect x="8" y="8" width="784" height="56" fill="#FFFFFF"/>
<line x1="8" y1="64" x2="792" y2="64" stroke="#E5E7EB" stroke-width="1"/>

<rect x="28" y="22" width="5" height="20" rx="1" fill="#4F46E5"/>
<rect x="35" y="28" width="5" height="14" rx="1" fill="#4F46E5"/>
<rect x="42" y="17" width="5" height="25" rx="1" fill="#4F46E5"/>
<text x="54" y="46" font-size="15" font-weight="700" fill="#4F46E5">ggWizard</text>
<text x="618" y="44" font-size="11" fill="#6B7280">Home</text>
<text x="660" y="44" font-size="11" fill="#6B7280">Help</text>
<text x="698" y="44" font-size="11" fill="#6B7280">About</text>

<!-- WELCOME -->
<g class="scr d0">
<ellipse cx="400" cy="240" rx="340" ry="150" fill="#EEF2FF"/>
<rect x="362" y="96" width="76" height="76" rx="18" fill="#4F46E5"/>
<rect x="379" y="132" width="8" height="24" rx="1" fill="#A5B4FC"/>
<rect x="391" y="122" width="8" height="34" rx="1" fill="#FFFFFF"/>
<rect x="403" y="112" width="8" height="44" rx="1" fill="#FFFFFF" opacity="0.9"/>
<rect x="415" y="127" width="8" height="29" rx="1" fill="#A5B4FC"/>
<text x="400" y="198" text-anchor="middle" font-size="30" font-weight="700" fill="#1A1D2E">ggWizard</text>
<text x="400" y="218" text-anchor="middle" font-size="12" fill="#6B7280">Create beautiful ggplot2 charts - no R code required</text>
<rect x="144" y="244" width="160" height="106" rx="10" fill="#FFFFFF" stroke="#E5E7EB" stroke-width="1.5"/>
<rect x="184" y="260" width="40" height="40" rx="10" fill="#EEF2FF"/>
<polygon points="196,274 210,280 196,286" fill="#4F46E5"/>
<text x="224" y="326" text-anchor="middle" font-size="12" font-weight="700" fill="#1A1D2E">Get Started</text>
<text x="224" y="341" text-anchor="middle" font-size="10" fill="#6B7280">Import and build plots</text>
<rect x="320" y="244" width="160" height="106" rx="10" fill="#FFFFFF" stroke="#E5E7EB" stroke-width="1.5"/>
<rect x="360" y="260" width="40" height="40" rx="10" fill="#ECFDF5"/>
<text x="380" y="287" text-anchor="middle" font-size="22" font-weight="700" fill="#059669">?</text>
<text x="400" y="326" text-anchor="middle" font-size="12" font-weight="700" fill="#1A1D2E">Help and Docs</text>
<text x="400" y="341" text-anchor="middle" font-size="10" fill="#6B7280">Guides and documentation</text>
<rect x="496" y="244" width="160" height="106" rx="10" fill="#FFFFFF" stroke="#E5E7EB" stroke-width="1.5"/>
<rect x="536" y="260" width="40" height="40" rx="10" fill="#FEF3C7"/>
<text x="556" y="287" text-anchor="middle" font-size="22" font-weight="700" fill="#D97706">i</text>
<text x="576" y="326" text-anchor="middle" font-size="12" font-weight="700" fill="#1A1D2E">About</text>
<text x="576" y="341" text-anchor="middle" font-size="10" fill="#6B7280">About ggWizard</text>
</g>

<!-- STEP 1: IMPORT -->
<g class="scr d1">
<rect x="8" y="64" width="180" height="436" fill="#FFFFFF"/>
<line x1="188" y1="64" x2="188" y2="500" stroke="#E5E7EB" stroke-width="1"/>
<text x="22" y="86" font-size="9" fill="#9CA3AF" font-weight="700" letter-spacing="1">IMPORT WIZARD</text>
<rect x="12" y="96" width="172" height="28" rx="6" fill="#EEF2FF"/>
<circle cx="30" cy="110" r="11" fill="#4F46E5"/><text x="30" y="115" text-anchor="middle" font-size="10" font-weight="700" fill="white">1</text>
<text x="48" y="115" font-size="11" font-weight="600" fill="#4F46E5">Import Data</text>
<circle cx="30" cy="144" r="11" fill="none" stroke="#D1D5DB" stroke-width="2"/><text x="30" y="149" text-anchor="middle" font-size="10" fill="#9CA3AF">2</text>
<text x="48" y="149" font-size="11" fill="#9CA3AF">Preview</text>
<circle cx="30" cy="178" r="11" fill="none" stroke="#D1D5DB" stroke-width="2"/><text x="30" y="183" text-anchor="middle" font-size="10" fill="#9CA3AF">3</text>
<text x="48" y="183" font-size="11" fill="#9CA3AF">Configure Plot</text>
<circle cx="30" cy="212" r="11" fill="none" stroke="#D1D5DB" stroke-width="2"/><text x="30" y="217" text-anchor="middle" font-size="10" fill="#9CA3AF">4</text>
<text x="48" y="217" font-size="11" fill="#9CA3AF">Customise</text>
<circle cx="30" cy="246" r="11" fill="none" stroke="#D1D5DB" stroke-width="2"/><text x="30" y="251" text-anchor="middle" font-size="10" fill="#9CA3AF">5</text>
<text x="48" y="251" font-size="11" fill="#9CA3AF">Export</text>
<text x="204" y="88" font-size="18" font-weight="700" fill="#1A1D2E">Import Data</text>
<text x="204" y="106" font-size="11" fill="#6B7280">Upload a CSV or Excel file to get started.</text>
<rect x="200" y="118" width="576" height="104" rx="10" fill="#FAFAFE" stroke="#C7D2FE" stroke-width="1.5" stroke-dasharray="8,5"/>
<rect x="385" y="138" width="30" height="30" rx="8" fill="#EEF2FF"/>
<text x="400" y="160" text-anchor="middle" font-size="16" fill="#4F46E5">&#x2191;</text>
<text x="400" y="186" text-anchor="middle" font-size="12" font-weight="600" fill="#4F46E5">Drop file here or click to browse</text>
<text x="400" y="202" text-anchor="middle" font-size="10" fill="#6B7280">CSV  .  XLSX  .  XLS</text>
<rect x="200" y="234" width="330" height="28" rx="6" fill="#EEF2FF" stroke="#C7D2FE" stroke-width="1"/>
<circle cx="217" cy="248" r="7" fill="#059669"/>
<text x="217" y="252" text-anchor="middle" font-size="9" font-weight="700" fill="white">+</text>
<text x="232" y="252" font-size="11" fill="#374151">lincoln_bacteria_monitoring.xlsx</text>
<text x="204" y="278" font-size="10" fill="#6B7280">Sheet:  Sample Data    268 rows x 18 columns detected</text>
<rect x="200" y="292" width="112" height="32" rx="8" fill="#4F46E5"/>
<text x="256" y="313" text-anchor="middle" font-size="12" font-weight="600" fill="white">Load Data</text>
</g>

<!-- STEP 2: PREVIEW -->
<g class="scr d2">
<rect x="8" y="64" width="180" height="436" fill="#FFFFFF"/>
<line x1="188" y1="64" x2="188" y2="500" stroke="#E5E7EB" stroke-width="1"/>
<text x="22" y="86" font-size="9" fill="#9CA3AF" font-weight="700" letter-spacing="1">IMPORT WIZARD</text>
<circle cx="30" cy="110" r="11" fill="#059669"/><text x="30" y="115" text-anchor="middle" font-size="10" font-weight="700" fill="white">1</text>
<text x="48" y="115" font-size="11" fill="#059669">Import Data</text>
<rect x="12" y="130" width="172" height="28" rx="6" fill="#EEF2FF"/>
<circle cx="30" cy="144" r="11" fill="#4F46E5"/><text x="30" y="149" text-anchor="middle" font-size="10" font-weight="700" fill="white">2</text>
<text x="48" y="149" font-size="11" font-weight="600" fill="#4F46E5">Preview</text>
<circle cx="30" cy="178" r="11" fill="none" stroke="#D1D5DB" stroke-width="2"/><text x="30" y="183" text-anchor="middle" font-size="10" fill="#9CA3AF">3</text>
<text x="48" y="183" font-size="11" fill="#9CA3AF">Configure Plot</text>
<circle cx="30" cy="212" r="11" fill="none" stroke="#D1D5DB" stroke-width="2"/><text x="30" y="217" text-anchor="middle" font-size="10" fill="#9CA3AF">4</text>
<text x="48" y="217" font-size="11" fill="#9CA3AF">Customise</text>
<circle cx="30" cy="246" r="11" fill="none" stroke="#D1D5DB" stroke-width="2"/><text x="30" y="251" text-anchor="middle" font-size="10" fill="#9CA3AF">5</text>
<text x="48" y="251" font-size="11" fill="#9CA3AF">Export</text>
<text x="204" y="88" font-size="18" font-weight="700" fill="#1A1D2E">Preview and Confirm</text>
<text x="204" y="106" font-size="11" fill="#6B7280">Review your data before building the plot.</text>
<rect x="200" y="112" width="104" height="64" rx="8" fill="#FFFFFF" stroke="#E5E7EB" stroke-width="1"/>
<text x="210" y="130" font-size="9" font-weight="700" fill="#6B7280">ROWS</text>
<text x="210" y="163" font-size="24" font-weight="700" fill="#1A1D2E">268</text>
<rect x="312" y="112" width="104" height="64" rx="8" fill="#FFFFFF" stroke="#E5E7EB" stroke-width="1"/>
<text x="322" y="130" font-size="9" font-weight="700" fill="#6B7280">COLUMNS</text>
<text x="322" y="163" font-size="24" font-weight="700" fill="#1A1D2E">18</text>
<rect x="424" y="112" width="104" height="64" rx="8" fill="#FFFFFF" stroke="#E5E7EB" stroke-width="1"/>
<text x="434" y="130" font-size="9" font-weight="700" fill="#6B7280">NUMERIC</text>
<text x="434" y="163" font-size="24" font-weight="700" fill="#4F46E5">8</text>
<rect x="536" y="112" width="104" height="64" rx="8" fill="#FFFFFF" stroke="#E5E7EB" stroke-width="1"/>
<text x="546" y="130" font-size="9" font-weight="700" fill="#6B7280">DATE COLS</text>
<text x="546" y="163" font-size="24" font-weight="700" fill="#4F46E5">2</text>
<rect x="648" y="112" width="128" height="64" rx="8" fill="#FFFFFF" stroke="#E5E7EB" stroke-width="1"/>
<text x="658" y="130" font-size="9" font-weight="700" fill="#6B7280">MISSING %</text>
<text x="658" y="163" font-size="24" font-weight="700" fill="#059669">2.3%</text>
<text x="204" y="200" font-size="12" font-weight="700" fill="#1A1D2E">Column types</text>
<rect x="200" y="208" width="576" height="22" fill="#F9FAFB" stroke="#E5E7EB" stroke-width="1"/>
<text x="210" y="224" font-size="9" font-weight="700" fill="#6B7280">COLUMN</text>
<text x="380" y="224" font-size="9" font-weight="700" fill="#6B7280">TYPE</text>
<text x="490" y="224" font-size="9" font-weight="700" fill="#6B7280">NON-MISSING</text>
<text x="630" y="224" font-size="9" font-weight="700" fill="#6B7280">SAMPLE</text>
<rect x="200" y="230" width="576" height="21" fill="#FFFFFF" stroke="#E5E7EB" stroke-width="0.5"/>
<text x="210" y="246" font-size="10" fill="#374151">Date</text>
<rect x="370" y="234" width="46" height="13" rx="6" fill="#DBEAFE"/><text x="393" y="244" text-anchor="middle" font-size="9" fill="#1E40AF">date</text>
<text x="490" y="246" font-size="10" fill="#374151">100%</text><text x="630" y="246" font-size="10" fill="#6B7280">2024-01-08</text>
<rect x="200" y="251" width="576" height="21" fill="#FAFAFA" stroke="#E5E7EB" stroke-width="0.5"/>
<text x="210" y="267" font-size="10" fill="#374151">E_coli_CFU100mL</text>
<rect x="370" y="255" width="58" height="13" rx="6" fill="#EDE9FE"/><text x="399" y="265" text-anchor="middle" font-size="9" fill="#6D28D9">numeric</text>
<text x="490" y="267" font-size="10" fill="#374151">98.1%</text><text x="630" y="267" font-size="10" fill="#6B7280">412.3</text>
<rect x="200" y="272" width="576" height="21" fill="#FFFFFF" stroke="#E5E7EB" stroke-width="0.5"/>
<text x="210" y="288" font-size="10" fill="#374151">Site_Name</text>
<rect x="370" y="276" width="50" height="13" rx="6" fill="#FEF3C7"/><text x="395" y="286" text-anchor="middle" font-size="9" fill="#92400E">factor</text>
<text x="490" y="288" font-size="10" fill="#374151">100%</text><text x="630" y="288" font-size="10" fill="#6B7280">Antelope Creek</text>
<rect x="200" y="293" width="576" height="21" fill="#FAFAFA" stroke="#E5E7EB" stroke-width="0.5"/>
<text x="210" y="309" font-size="10" fill="#374151">Season</text>
<rect x="370" y="297" width="50" height="13" rx="6" fill="#FEF3C7"/><text x="395" y="307" text-anchor="middle" font-size="9" fill="#92400E">factor</text>
<text x="490" y="309" font-size="10" fill="#374151">100%</text><text x="630" y="309" font-size="10" fill="#6B7280">Winter</text>
<text x="204" y="342" font-size="12" font-weight="700" fill="#1A1D2E">Data preview</text>
<text x="692" y="342" font-size="10" fill="#6B7280">First 2,000 rows</text>
<rect x="200" y="348" width="576" height="22" fill="#F9FAFB" stroke="#E5E7EB" stroke-width="1"/>
<text x="210" y="364" font-size="9" font-weight="700" fill="#6B7280">DATE</text>
<text x="298" y="364" font-size="9" font-weight="700" fill="#6B7280">SITE</text>
<text x="450" y="364" font-size="9" font-weight="700" fill="#6B7280">E_COLI</text>
<text x="545" y="364" font-size="9" font-weight="700" fill="#6B7280">SEASON</text>
<text x="666" y="364" font-size="9" font-weight="700" fill="#6B7280">TEMP (C)</text>
<rect x="200" y="370" width="576" height="20" fill="#FFFFFF" stroke="#E5E7EB" stroke-width="0.5"/>
<text x="210" y="385" font-size="10" fill="#374151">2024-01-08</text><text x="298" y="385" font-size="10" fill="#374151">Antelope Creek</text><text x="450" y="385" font-size="10" fill="#374151">412.3</text><text x="545" y="385" font-size="10" fill="#374151">Winter</text><text x="666" y="385" font-size="10" fill="#374151">4.2</text>
<rect x="200" y="390" width="576" height="20" fill="#FAFAFA" stroke="#E5E7EB" stroke-width="0.5"/>
<text x="210" y="405" font-size="10" fill="#374151">2024-01-08</text><text x="298" y="405" font-size="10" fill="#374151">Salt Creek</text><text x="450" y="405" font-size="10" fill="#374151">88.5</text><text x="545" y="405" font-size="10" fill="#374151">Winter</text><text x="666" y="405" font-size="10" fill="#374151">3.8</text>
<rect x="200" y="410" width="576" height="20" fill="#FFFFFF" stroke="#E5E7EB" stroke-width="0.5"/>
<text x="210" y="425" font-size="10" fill="#374151">2024-02-19</text><text x="298" y="425" font-size="10" fill="#374151">Holmes Lake</text><text x="450" y="425" font-size="10" fill="#374151">1240.0</text><text x="545" y="425" font-size="10" fill="#374151">Winter</text><text x="666" y="425" font-size="10" fill="#374151">5.1</text>
</g>

<!-- STEP 3: CONFIGURE PLOT -->
<g class="scr d3">
<rect x="8" y="64" width="180" height="436" fill="#FFFFFF"/>
<line x1="188" y1="64" x2="188" y2="500" stroke="#E5E7EB" stroke-width="1"/>
<text x="22" y="86" font-size="9" fill="#9CA3AF" font-weight="700" letter-spacing="1">IMPORT WIZARD</text>
<circle cx="30" cy="110" r="11" fill="#059669"/><text x="30" y="115" text-anchor="middle" font-size="10" font-weight="700" fill="white">1</text>
<text x="48" y="115" font-size="11" fill="#059669">Import Data</text>
<circle cx="30" cy="144" r="11" fill="#059669"/><text x="30" y="149" text-anchor="middle" font-size="10" font-weight="700" fill="white">2</text>
<text x="48" y="149" font-size="11" fill="#059669">Preview</text>
<rect x="12" y="164" width="172" height="28" rx="6" fill="#EEF2FF"/>
<circle cx="30" cy="178" r="11" fill="#4F46E5"/><text x="30" y="183" text-anchor="middle" font-size="10" font-weight="700" fill="white">3</text>
<text x="48" y="183" font-size="11" font-weight="600" fill="#4F46E5">Configure Plot</text>
<circle cx="30" cy="212" r="11" fill="none" stroke="#D1D5DB" stroke-width="2"/><text x="30" y="217" text-anchor="middle" font-size="10" fill="#9CA3AF">4</text>
<text x="48" y="217" font-size="11" fill="#9CA3AF">Customise</text>
<circle cx="30" cy="246" r="11" fill="none" stroke="#D1D5DB" stroke-width="2"/><text x="30" y="251" text-anchor="middle" font-size="10" fill="#9CA3AF">5</text>
<text x="48" y="251" font-size="11" fill="#9CA3AF">Export</text>
<text x="204" y="88" font-size="18" font-weight="700" fill="#1A1D2E">Configure Plot</text>
<text x="204" y="106" font-size="11" fill="#6B7280">Choose a plot type and map columns to visual properties.</text>
<text x="204" y="128" font-size="11" font-weight="600" fill="#374151">Plot type</text>
<rect x="200" y="134" width="268" height="28" rx="6" fill="#FFFFFF" stroke="#D1D5DB" stroke-width="1.5"/>
<text x="212" y="153" font-size="11" fill="#374151">Bar Chart</text><text x="456" y="153" font-size="10" fill="#6B7280">&#x25BC;</text>
<text x="204" y="178" font-size="11" font-weight="600" fill="#374151">X axis</text>
<rect x="200" y="184" width="268" height="28" rx="6" fill="#FFFFFF" stroke="#D1D5DB" stroke-width="1.5"/>
<text x="212" y="203" font-size="11" fill="#374151">Site_Name</text><text x="456" y="203" font-size="10" fill="#6B7280">&#x25BC;</text>
<text x="204" y="228" font-size="11" font-weight="600" fill="#374151">Y axis  (sum)</text>
<rect x="200" y="234" width="268" height="28" rx="6" fill="#FFFFFF" stroke="#D1D5DB" stroke-width="1.5"/>
<text x="212" y="253" font-size="11" fill="#374151">E_coli_CFU100mL</text><text x="456" y="253" font-size="10" fill="#6B7280">&#x25BC;</text>
<text x="204" y="278" font-size="11" font-weight="600" fill="#374151">Group / Color</text>
<rect x="200" y="284" width="268" height="28" rx="6" fill="#FFFFFF" stroke="#D1D5DB" stroke-width="1.5"/>
<text x="212" y="303" font-size="11" fill="#374151">Season</text><text x="456" y="303" font-size="10" fill="#6B7280">&#x25BC;</text>
<text x="204" y="328" font-size="11" font-weight="600" fill="#374151">Facet by  (optional)</text>
<rect x="200" y="334" width="268" height="28" rx="6" fill="#FFFFFF" stroke="#E5E7EB" stroke-width="1"/>
<text x="212" y="353" font-size="11" fill="#9CA3AF">None</text><text x="456" y="353" font-size="10" fill="#6B7280">&#x25BC;</text>
<text x="204" y="382" font-size="11" fill="#6B7280">Interactive plot</text>
<rect x="318" y="370" width="36" height="20" rx="10" fill="#E5E7EB"/>
<circle cx="328" cy="380" r="8" fill="#FFFFFF"/>
<rect x="492" y="80" width="292" height="360" rx="8" fill="#FFFFFF" stroke="#E5E7EB" stroke-width="1"/>
<text x="638" y="98" text-anchor="middle" font-size="11" font-weight="600" fill="#374151">Live Preview</text>
<line x1="492" y1="104" x2="784" y2="104" stroke="#E5E7EB" stroke-width="0.5"/>
<line x1="526" y1="116" x2="526" y2="400" stroke="#D1D5DB" stroke-width="1"/>
<line x1="526" y1="400" x2="778" y2="400" stroke="#D1D5DB" stroke-width="1"/>
<line x1="526" y1="194" x2="778" y2="194" stroke="#F3F4F6" stroke-width="0.5"/>
<line x1="526" y1="256" x2="778" y2="256" stroke="#F3F4F6" stroke-width="0.5"/>
<line x1="526" y1="328" x2="778" y2="328" stroke="#F3F4F6" stroke-width="0.5"/>
<text x="521" y="120" text-anchor="end" font-size="8" fill="#9CA3AF">1500</text>
<text x="521" y="200" text-anchor="end" font-size="8" fill="#9CA3AF">1000</text>
<text x="521" y="260" text-anchor="end" font-size="8" fill="#9CA3AF">500</text>
<text x="521" y="332" text-anchor="end" font-size="8" fill="#9CA3AF">200</text>
<text x="521" y="404" text-anchor="end" font-size="8" fill="#9CA3AF">0</text>
<rect x="538" y="277" width="34" height="123" rx="2" fill="#4F46E5"/>
<rect x="584" y="245" width="34" height="155" rx="2" fill="#059669"/>
<rect x="630" y="321" width="34" height="79" rx="2" fill="#D97706"/>
<rect x="676" y="366" width="34" height="34" rx="2" fill="#DC2626"/>
<text x="555" y="414" text-anchor="middle" font-size="8" fill="#9CA3AF">Spring</text>
<text x="601" y="414" text-anchor="middle" font-size="8" fill="#9CA3AF">Summer</text>
<text x="647" y="414" text-anchor="middle" font-size="8" fill="#9CA3AF">Fall</text>
<text x="693" y="414" text-anchor="middle" font-size="8" fill="#9CA3AF">Winter</text>
<text x="0" y="0" text-anchor="middle" font-size="8" fill="#9CA3AF" transform="translate(508,258) rotate(-90)">E_coli_CFU100mL</text>
<text x="652" y="430" text-anchor="middle" font-size="8" fill="#9CA3AF">Season</text>
</g>

<!-- STEP 4: CUSTOMISE -->
<g class="scr d4">
<rect x="8" y="64" width="180" height="436" fill="#FFFFFF"/>
<line x1="188" y1="64" x2="188" y2="500" stroke="#E5E7EB" stroke-width="1"/>
<text x="22" y="86" font-size="9" fill="#9CA3AF" font-weight="700" letter-spacing="1">IMPORT WIZARD</text>
<circle cx="30" cy="110" r="11" fill="#059669"/><text x="30" y="115" text-anchor="middle" font-size="10" font-weight="700" fill="white">1</text>
<text x="48" y="115" font-size="11" fill="#059669">Import Data</text>
<circle cx="30" cy="144" r="11" fill="#059669"/><text x="30" y="149" text-anchor="middle" font-size="10" font-weight="700" fill="white">2</text>
<text x="48" y="149" font-size="11" fill="#059669">Preview</text>
<circle cx="30" cy="178" r="11" fill="#059669"/><text x="30" y="183" text-anchor="middle" font-size="10" font-weight="700" fill="white">3</text>
<text x="48" y="183" font-size="11" fill="#059669">Configure Plot</text>
<rect x="12" y="198" width="172" height="28" rx="6" fill="#EEF2FF"/>
<circle cx="30" cy="212" r="11" fill="#4F46E5"/><text x="30" y="217" text-anchor="middle" font-size="10" font-weight="700" fill="white">4</text>
<text x="48" y="217" font-size="11" font-weight="600" fill="#4F46E5">Customise</text>
<circle cx="30" cy="246" r="11" fill="none" stroke="#D1D5DB" stroke-width="2"/><text x="30" y="251" text-anchor="middle" font-size="10" fill="#9CA3AF">5</text>
<text x="48" y="251" font-size="11" fill="#9CA3AF">Export</text>
<text x="204" y="88" font-size="18" font-weight="700" fill="#1A1D2E">Customise Appearance</text>
<text x="204" y="106" font-size="11" fill="#6B7280">Fine-tune themes, fonts, colors, labels, and grid options.</text>
<rect x="200" y="114" width="576" height="28" rx="6" fill="#F9FAFB" stroke="#E5E7EB" stroke-width="1"/>
<text x="214" y="133" font-size="11" font-weight="600" fill="#374151">Labels</text>
<text x="763" y="133" text-anchor="middle" font-size="10" fill="#4F46E5">&#x25B2;</text>
<rect x="200" y="142" width="576" height="56" fill="#FFFFFF" stroke="#E5E7EB" stroke-width="1"/>
<rect x="212" y="150" width="28" height="16" rx="8" fill="#4F46E5"/>
<circle cx="230" cy="158" r="6" fill="#FFFFFF"/>
<text x="248" y="163" font-size="11" fill="#374151">Plot title</text>
<rect x="330" y="148" width="434" height="20" rx="4" fill="#FFFFFF" stroke="#D1D5DB" stroke-width="1"/>
<text x="340" y="163" font-size="10" fill="#374151">E. coli Levels by Season at Lincoln Sites</text>
<rect x="212" y="174" width="28" height="16" rx="8" fill="#E5E7EB"/>
<circle cx="222" cy="182" r="6" fill="#FFFFFF"/>
<text x="248" y="187" font-size="11" fill="#9CA3AF">Subtitle  (disabled)</text>
<rect x="200" y="204" width="576" height="28" rx="6" fill="#F9FAFB" stroke="#E5E7EB" stroke-width="1"/>
<text x="214" y="223" font-size="11" font-weight="600" fill="#374151">Font</text>
<text x="763" y="223" text-anchor="middle" font-size="10" fill="#4F46E5">&#x25B2;</text>
<rect x="200" y="232" width="576" height="50" fill="#FFFFFF" stroke="#E5E7EB" stroke-width="1"/>
<text x="212" y="250" font-size="10" fill="#6B7280">Size template:</text>
<circle cx="296" cy="248" r="6" fill="none" stroke="#D1D5DB" stroke-width="1.5"/>
<text x="306" y="252" font-size="10" fill="#374151">Small</text>
<circle cx="358" cy="248" r="6" fill="#4F46E5" stroke="#4F46E5" stroke-width="1.5"/>
<circle cx="358" cy="248" r="3" fill="#FFFFFF"/>
<text x="368" y="252" font-size="10" fill="#374151">Medium</text>
<circle cx="428" cy="248" r="6" fill="none" stroke="#D1D5DB" stroke-width="1.5"/>
<text x="438" y="252" font-size="10" fill="#374151">Large</text>
<circle cx="490" cy="248" r="6" fill="none" stroke="#D1D5DB" stroke-width="1.5"/>
<text x="500" y="252" font-size="10" fill="#374151">Extra Large</text>
<text x="212" y="272" font-size="10" fill="#6B7280">Font face:</text>
<rect x="274" y="262" width="120" height="20" rx="4" fill="#FFFFFF" stroke="#D1D5DB" stroke-width="1"/>
<text x="284" y="277" font-size="10" fill="#374151">Arial</text>
<text x="382" y="277" font-size="9" fill="#6B7280">&#x25BC;</text>
<rect x="200" y="288" width="576" height="28" rx="6" fill="#F9FAFB" stroke="#E5E7EB" stroke-width="1"/>
<text x="214" y="307" font-size="11" font-weight="600" fill="#374151">Theme</text>
<text x="763" y="307" text-anchor="middle" font-size="10" fill="#6B7280">&#x25BC;</text>
<rect x="200" y="322" width="576" height="28" rx="6" fill="#F9FAFB" stroke="#E5E7EB" stroke-width="1"/>
<text x="214" y="341" font-size="11" font-weight="600" fill="#374151">Colors</text>
<text x="763" y="341" text-anchor="middle" font-size="10" fill="#4F46E5">&#x25B2;</text>
<rect x="200" y="350" width="576" height="44" fill="#FFFFFF" stroke="#E5E7EB" stroke-width="1"/>
<text x="212" y="368" font-size="10" fill="#6B7280">Palette:</text>
<circle cx="270" cy="372" r="10" fill="#4F46E5"/>
<circle cx="270" cy="372" r="13" fill="none" stroke="#4F46E5" stroke-width="2"/>
<circle cx="295" cy="372" r="10" fill="#059669"/>
<circle cx="320" cy="372" r="10" fill="#D97706"/>
<circle cx="345" cy="372" r="10" fill="#DC2626"/>
<circle cx="370" cy="372" r="10" fill="#7C3AED"/>
<circle cx="395" cy="372" r="10" fill="#0891B2"/>
<circle cx="420" cy="372" r="10" fill="#65A30D"/>
<text x="446" y="376" font-size="10" fill="#4F46E5" font-weight="600">Plotter</text>
<rect x="200" y="400" width="576" height="28" rx="6" fill="#F9FAFB" stroke="#E5E7EB" stroke-width="1"/>
<text x="214" y="419" font-size="11" font-weight="600" fill="#374151">Grid and axes</text>
<text x="763" y="419" text-anchor="middle" font-size="10" fill="#6B7280">&#x25BC;</text>
<rect x="200" y="434" width="576" height="28" rx="6" fill="#F9FAFB" stroke="#E5E7EB" stroke-width="1"/>
<text x="214" y="453" font-size="11" font-weight="600" fill="#374151">Geometry options</text>
<text x="763" y="453" text-anchor="middle" font-size="10" fill="#6B7280">&#x25BC;</text>
</g>

<!-- STEP 5: EXPORT -->
<g class="scr d5">
<rect x="8" y="64" width="180" height="436" fill="#FFFFFF"/>
<line x1="188" y1="64" x2="188" y2="500" stroke="#E5E7EB" stroke-width="1"/>
<text x="22" y="86" font-size="9" fill="#9CA3AF" font-weight="700" letter-spacing="1">IMPORT WIZARD</text>
<circle cx="30" cy="110" r="11" fill="#059669"/><text x="30" y="115" text-anchor="middle" font-size="10" font-weight="700" fill="white">1</text>
<text x="48" y="115" font-size="11" fill="#059669">Import Data</text>
<circle cx="30" cy="144" r="11" fill="#059669"/><text x="30" y="149" text-anchor="middle" font-size="10" font-weight="700" fill="white">2</text>
<text x="48" y="149" font-size="11" fill="#059669">Preview</text>
<circle cx="30" cy="178" r="11" fill="#059669"/><text x="30" y="183" text-anchor="middle" font-size="10" font-weight="700" fill="white">3</text>
<text x="48" y="183" font-size="11" fill="#059669">Configure Plot</text>
<circle cx="30" cy="212" r="11" fill="#059669"/><text x="30" y="217" text-anchor="middle" font-size="10" font-weight="700" fill="white">4</text>
<text x="48" y="217" font-size="11" fill="#059669">Customise</text>
<rect x="12" y="232" width="172" height="28" rx="6" fill="#EEF2FF"/>
<circle cx="30" cy="246" r="11" fill="#4F46E5"/><text x="30" y="251" text-anchor="middle" font-size="10" font-weight="700" fill="white">5</text>
<text x="48" y="251" font-size="11" font-weight="600" fill="#4F46E5">Export</text>
<text x="204" y="88" font-size="18" font-weight="700" fill="#1A1D2E">Export Outputs</text>
<text x="204" y="106" font-size="11" fill="#6B7280">Save your plot, R script, and run log to a timestamped folder.</text>
<text x="204" y="128" font-size="11" font-weight="600" fill="#374151">Output folder</text>
<rect x="200" y="134" width="100" height="28" rx="6" fill="#FFFFFF" stroke="#D1D5DB" stroke-width="1.5"/>
<text x="250" y="153" text-anchor="middle" font-size="11" fill="#374151">Browse</text>
<rect x="310" y="134" width="260" height="28" rx="6" fill="#F9FAFB" stroke="#E5E7EB" stroke-width="1"/>
<text x="320" y="153" font-size="10" fill="#9CA3AF">~/Desktop/outputs</text>
<text x="204" y="182" font-size="11" font-weight="600" fill="#374151">File format</text>
<rect x="200" y="188" width="72" height="28" rx="6" fill="#4F46E5"/>
<text x="236" y="207" text-anchor="middle" font-size="11" font-weight="600" fill="white">PNG</text>
<rect x="276" y="188" width="72" height="28" rx="6" fill="#4F46E5"/>
<text x="312" y="207" text-anchor="middle" font-size="11" font-weight="600" fill="white">PDF</text>
<rect x="352" y="188" width="72" height="28" rx="6" fill="#FFFFFF" stroke="#4F46E5" stroke-width="1.5"/>
<text x="388" y="207" text-anchor="middle" font-size="11" fill="#4F46E5">SVG</text>
<rect x="428" y="188" width="72" height="28" rx="6" fill="#FFFFFF" stroke="#4F46E5" stroke-width="1.5"/>
<text x="464" y="207" text-anchor="middle" font-size="11" fill="#4F46E5">JPEG</text>
<text x="204" y="240" font-size="11" font-weight="600" fill="#374151">Quality / DPI</text>
<circle cx="216" cy="255" r="6" fill="none" stroke="#D1D5DB" stroke-width="1.5"/>
<text x="226" y="259" font-size="10" fill="#374151">Low (150 dpi)</text>
<circle cx="310" cy="255" r="6" fill="#4F46E5"/>
<circle cx="310" cy="255" r="3" fill="#FFFFFF"/>
<text x="320" y="259" font-size="10" fill="#374151">Medium (300 dpi)</text>
<circle cx="426" cy="255" r="6" fill="none" stroke="#D1D5DB" stroke-width="1.5"/>
<text x="436" y="259" font-size="10" fill="#374151">High (600 dpi)</text>
<text x="204" y="284" font-size="11" font-weight="600" fill="#374151">Dimensions</text>
<rect x="200" y="290" width="80" height="26" rx="6" fill="#FFFFFF" stroke="#D1D5DB" stroke-width="1"/>
<text x="240" y="308" text-anchor="middle" font-size="10" fill="#374151">8 in</text>
<text x="286" y="308" font-size="11" fill="#9CA3AF">x</text>
<rect x="296" y="290" width="80" height="26" rx="6" fill="#FFFFFF" stroke="#D1D5DB" stroke-width="1"/>
<text x="336" y="308" text-anchor="middle" font-size="10" fill="#374151">6 in</text>
<text x="204" y="336" font-size="11" font-weight="600" fill="#374151">Also save</text>
<rect x="200" y="342" width="28" height="16" rx="8" fill="#4F46E5"/>
<circle cx="218" cy="350" r="6" fill="#FFFFFF"/>
<text x="235" y="355" font-size="11" fill="#374151">R script (plot_script.R)</text>
<rect x="200" y="364" width="28" height="16" rx="8" fill="#4F46E5"/>
<circle cx="218" cy="372" r="6" fill="#FFFFFF"/>
<text x="235" y="377" font-size="11" fill="#374151">Run log (run_log.txt)</text>
<rect x="200" y="398" width="150" height="36" rx="8" fill="#059669"/>
<text x="275" y="421" text-anchor="middle" font-size="12" font-weight="700" fill="white">Save all to folder</text>
<rect x="360" y="398" width="120" height="36" rx="8" fill="#FFFFFF" stroke="#4F46E5" stroke-width="1.5"/>
<text x="420" y="421" text-anchor="middle" font-size="11" fill="#4F46E5">Download Plot</text>
<rect x="490" y="398" width="136" height="36" rx="8" fill="#FFFFFF" stroke="#4F46E5" stroke-width="1.5"/>
<text x="558" y="421" text-anchor="middle" font-size="11" fill="#4F46E5">Download R Script</text>
<rect x="492" y="120" width="280" height="260" rx="8" fill="#FFFFFF" stroke="#E5E7EB" stroke-width="1"/>
<text x="632" y="138" text-anchor="middle" font-size="11" font-weight="600" fill="#374151">Final plot</text>
<line x1="492" y1="144" x2="772" y2="144" stroke="#E5E7EB" stroke-width="0.5"/>
<line x1="518" y1="154" x2="518" y2="350" stroke="#D1D5DB" stroke-width="0.5"/>
<line x1="518" y1="350" x2="766" y2="350" stroke="#D1D5DB" stroke-width="0.5"/>
<rect x="524" y="270" width="28" height="80" rx="2" fill="#4F46E5" opacity="0.85"/>
<rect x="558" y="230" width="28" height="120" rx="2" fill="#059669" opacity="0.85"/>
<rect x="592" y="300" width="28" height="50" rx="2" fill="#D97706" opacity="0.85"/>
<rect x="626" y="316" width="28" height="34" rx="2" fill="#DC2626" opacity="0.85"/>
<rect x="660" y="210" width="28" height="140" rx="2" fill="#7C3AED" opacity="0.85"/>
<rect x="694" y="286" width="28" height="64" rx="2" fill="#0891B2" opacity="0.85"/>
<rect x="728" y="330" width="28" height="20" rx="2" fill="#65A30D" opacity="0.85"/>
<text x="538" y="364" text-anchor="middle" font-size="7" fill="#9CA3AF">AC</text>
<text x="572" y="364" text-anchor="middle" font-size="7" fill="#9CA3AF">SC</text>
<text x="606" y="364" text-anchor="middle" font-size="7" fill="#9CA3AF">HL</text>
<text x="640" y="364" text-anchor="middle" font-size="7" fill="#9CA3AF">PL</text>
<text x="674" y="364" text-anchor="middle" font-size="7" fill="#9CA3AF">BS</text>
<text x="708" y="364" text-anchor="middle" font-size="7" fill="#9CA3AF">SO1</text>
<text x="742" y="364" text-anchor="middle" font-size="7" fill="#9CA3AF">SO2</text>
</g>

</g>
</svg>
